<svg width="122" height="128" viewBox="0 0 122 128" fill="none" xmlns="http://www.w3.org/2000/svg">
<g clip-path="url(#clip0)">
<path d="M94.8411 18.5049C84.1409 12.4361 73.7415 6.5383 63.342 0.640469C61.5801 -0.342502 59.8612 -0.171551 58.1423 0.811421C39.1483 11.6668 20.1543 22.4795 1.20324 33.335C0.60162 33.6769 0.0429729 34.6598 0.0429729 35.3436C0 57.0118 -0.0429729 78.6371 0.0859458 100.262C0.0859458 101.673 1.16027 103.682 2.32054 104.365C12.5481 110.391 22.9045 116.161 33.261 122.016C33.347 122.059 33.5188 122.016 33.9915 122.016C33.9915 121.204 33.9915 120.349 33.9915 119.537C33.9915 98.2538 34.0345 77.0131 33.9486 55.7296C33.9486 53.7209 34.6791 52.7807 36.3121 51.8832C55.3491 41.1133 74.3431 30.3006 93.3371 19.4879C93.7238 19.2742 94.1536 18.975 94.8411 18.5049Z" fill="#151512"/>
<path d="M77.9092 128C77.9092 127.017 77.9092 126.205 77.9092 125.436C77.9092 110.563 77.9522 95.6906 77.8662 80.7751C77.8662 78.8518 78.4249 77.8261 80.1438 76.8859C93.3794 69.4922 106.529 61.9704 119.722 54.4912C120.366 54.1493 120.968 53.7647 121.742 53.2946C121.398 52.9954 121.183 52.739 120.882 52.568C112.287 47.6532 103.65 42.7811 95.0983 37.7807C92.5629 36.2849 90.3713 36.2422 87.75 37.738C74.9441 45.1316 62.0522 52.3971 49.1603 59.6625C47.7422 60.4318 47.3125 61.3293 47.3125 62.9106C47.3555 77.7407 47.3555 92.528 47.3125 107.358C47.3125 109.58 48.0001 111.333 49.9768 112.444C58.8722 117.487 67.7246 122.487 76.62 127.53C76.9208 127.701 77.3076 127.787 77.9092 128Z" fill="#151512"/>
<path d="M122 103.17C111.643 97.2718 101.673 91.6304 91.4458 85.818C91.4458 97.4855 91.4458 108.768 91.4458 120.521C101.587 114.752 111.557 109.11 122 103.17Z" fill="#151512"/>
</g>
<defs>
<clipPath id="clip0">
<rect width="122" height="128" fill="white"/>
</clipPath>
</defs>
</svg>
